HIERARCHY
ROOT Hips
{
	OFFSET 0.00000 0.00000 0.00000
	CHANNELS 6 Xposition Yposition Zposition Zrotation Yrotation Xrotation 
	JOINT LHipJoint
	{
		OFFSET 0 0 0
		CHANNELS 3 Zrotation Yrotation Xrotation
		JOINT LeftUpLeg
		{
			OFFSET 1.41496 -1.84582 0.78394
			CHANNELS 3 Zrotation Yrotation Xrotation
			JOINT LeftLeg
			{
				OFFSET 2.58040 -7.08960 0.00000
				CHANNELS 3 Zrotation Yrotation Xrotation
				JOINT LeftFoot
				{
					OFFSET 2.64719 -7.27309 0.00000
					CHANNELS 3 Zrotation Yrotation Xrotation
					JOINT LeftToeBase
					{
						OFFSET 0.20718 -0.56921 2.20259
						CHANNELS 3 Zrotation Yrotation Xrotation
						End Site
						{
							OFFSET 0.00000 -0.00000 1.14243
						}
					}
				}
			}
		}
	}
	JOINT RHipJoint
	{
		OFFSET 0 0 0
		CHANNELS 3 Zrotation Yrotation Xrotation
		JOINT RightUpLeg
		{
			OFFSET -1.40551 -1.84582 0.78394
			CHANNELS 3 Zrotation Yrotation Xrotation
			JOINT RightLeg
			{
				OFFSET -2.56572 -7.04926 0.00000
				CHANNELS 3 Zrotation Yrotation Xrotation
				JOINT RightFoot
				{
					OFFSET -2.57974 -7.08778 0.00000
					CHANNELS 3 Zrotation Yrotation Xrotation
					JOINT RightToeBase
					{
						OFFSET -0.26704 -0.73369 2.20815
						CHANNELS 3 Zrotation Yrotation Xrotation
						End Site
						{
							OFFSET -0.00000 -0.00000 1.16246
						}
					}
				}
			}
		}
	}
	JOINT LowerBack
	{
		OFFSET 0 0 0
		CHANNELS 3 Zrotation Yrotation Xrotation
		JOINT Spine
		{
			OFFSET -0.04690 2.05196 -0.07017
			CHANNELS 3 Zrotation Yrotation Xrotation
			JOINT Spine1
			{
				OFFSET 0.04085 2.05260 0.00800
				CHANNELS 3 Zrotation Yrotation Xrotation
				JOINT Neck
				{
					OFFSET 0 0 0
					CHANNELS 3 Zrotation Yrotation Xrotation
					JOINT Neck1
					{
						OFFSET -0.03582 1.80995 0.19301
						CHANNELS 3 Zrotation Yrotation Xrotation
						JOINT Head
						{
							OFFSET 0.00952 1.80195 -0.36389
							CHANNELS 3 Zrotation Yrotation Xrotation
							End Site
							{
								OFFSET 0.00392 1.85062 -0.14494
							}
						}
					}
				}
				JOINT LeftShoulder
				{
					OFFSET 0 0 0
					CHANNELS 3 Zrotation Yrotation Xrotation
					JOINT LeftArm
					{
						OFFSET 3.55224 1.39726 -0.13667
						CHANNELS 3 Zrotation Yrotation Xrotation
						JOINT LeftForeArm
						{
							OFFSET 5.14507 -0.00000 -0.00000
							CHANNELS 3 Zrotation Yrotation Xrotation
							JOINT LeftHand
							{
								OFFSET 3.50646 -0.00000 0.00000
								CHANNELS 3 Zrotation Yrotation Xrotation
								JOINT LeftFingerBase
								{
									OFFSET 0 0 0
									CHANNELS 3 Zrotation Yrotation Xrotation
									JOINT LeftHandIndex1
									{
										OFFSET 0.62997 -0.00000 0.00000
										CHANNELS 3 Zrotation Yrotation Xrotation
										End Site
										{
											OFFSET 0.50790 -0.00000 0.00000
										}
									}
								}
								JOINT LThumb
								{
									OFFSET 0 0 0
									CHANNELS 3 Zrotation Yrotation Xrotation
									End Site
									{
										OFFSET 0.51565 -0.00000 0.51565
									}
								}
							}
						}
					}
				}
				JOINT RightShoulder
				{
					OFFSET 0 0 0
					CHANNELS 3 Zrotation Yrotation Xrotation
					JOINT RightArm
					{
						OFFSET -3.06467 1.61290 -0.28813
						CHANNELS 3 Zrotation Yrotation Xrotation
						JOINT RightForeArm
						{
							OFFSET -5.23200 -0.00000 -0.00000
							CHANNELS 3 Zrotation Yrotation Xrotation
							JOINT RightHand
							{
								OFFSET -3.65641 -0.00000 0.00000
								CHANNELS 3 Zrotation Yrotation Xrotation
								JOINT RightFingerBase
								{
									OFFSET 0 0 0
									CHANNELS 3 Zrotation Yrotation Xrotation
									JOINT RightHandIndex1
									{
										OFFSET -0.65681 -0.00000 0.00000
										CHANNELS 3 Zrotation Yrotation Xrotation
										End Site
										{
											OFFSET -0.52953 -0.00000 0.00000
										}
									}
								}
								JOINT RThumb
								{
									OFFSET 0 0 0
									CHANNELS 3 Zrotation Yrotation Xrotation
									End Site
									{
										OFFSET -0.53762 -0.00000 0.53762
									}
								}
							}
						}
					}
				}
			}
		}
	}
}
MOTION
Frames: 6
Frame Time: 0.0425532
0.00 0.00 0.00 0 0 0 0 0 0 -21 0 0 0 0 0 0 0 0 0 0 0 0 0 0 21 0 0 0 0 0 0 0 0 0 0 0 0 0 0 0 0 0 0 0 0 0 0 -16 0 0 21 0 0 11 0 0 0 -8 0 0 0 0 0 0 0 0 0 0 0 0 0 0 0 0 0 0 0 0 8 0 0 0 0 0 0 0 0 0 0 0 0 0 0 0 0 0
0.00 0.00 0.00 -177.8460 -0.2446 -160.4710 0.0000 0.0000 0.0000 -9.3004 -11.8291 -67.6144 13.3715 18.9122 70.2755 0.3209 -15.8960 -14.2644 0.3787 -3.9521 -10.9420 0.0000 0.0000 0.0000 25.8025 0.2889 -13.8334 -5.2139 -13.6207 41.7389 -3.4539 3.2077 -34.4747 -1.7610 8.3495 -23.7807 4.7181 1.5041 14.5494 3.5813 3.4421 2.0548 0.4403 1.8134 -5.9382 -3.3931 -2.9164 -14.5591 -2.4422 -3.1675 6.1762 -0.4623 -1.8523 4.2132 0.0000 0.0000 0.0000 -88.8169 15.6400 44.2235 78.0397 -59.4525 -49.6611 -0.0000 0.0000 -8.5037 25.8193 -8.8436 -4.2541 -7.1250 0.0000 -0.0000 -0.7820 20.1739 0.4644 0.0000 0.0000 0.0000 83.2747 -3.4119 41.3161 -49.9172 52.9621 -26.1081 0.0000 -0.0000 -1.7896 -23.8305 -2.8896 1.2755 7.1250 -0.0000 -0.0000 2.2561 -33.1322 0.6566
0.00 0.00 0.00 -177.8700 0.0491 -160.4250 0.0000 0.0000 0.0000 -9.8461 -12.2121 -72.0921 10.6433 17.7561 61.6177 -0.1460 -17.4075 -10.7901 0.4121 -4.1207 -11.4166 0.0000 0.0000 0.0000 25.7737 -1.7090 -5.1404 -3.4688 -11.4178 33.7023 -3.0457 4.0880 -32.1119 -1.8955 8.6449 -24.6908 4.5407 2.2935 14.0189 3.1302 4.3415 1.9331 -0.0796 2.2328 -5.7284 -4.0430 -3.4176 -14.3637 -1.8465 -3.7785 6.0671 -0.2188 -2.1275 4.1729 -0.0000 -0.0000 0.0000 -85.4945 26.8156 42.4498 98.4112 -59.7310 -67.2778 -0.0000 0.0000 -8.3102 26.0460 -9.7315 -4.7225 -7.1250 0.0000 -0.0000 -0.6661 19.1733 0.4104 -0.0000 -0.0000 0.0000 82.9360 -3.0093 45.2080 -73.5377 58.9508 -45.7934 0.0000 -0.0000 -2.0245 -22.9345 -1.6737 0.7080 7.1250 -0.0000 -0.0000 2.9246 -31.7885 0.9463
0.00 0.00 0.00 -178.2280 0.2888 -160.4190 0.0000 0.0000 0.0000 -10.4404 -12.7641 -73.0937 9.2768 16.9826 57.0425 -0.2494 -16.2503 -8.6559 0.3840 -3.9794 -11.0186 0.0000 0.0000 0.0000 25.0971 -3.5578 1.4800 -2.1370 -9.1458 26.2524 -2.3200 3.7444 -27.9139 -2.1446 9.1610 -26.3004 4.3929 2.7380 13.8967 2.4670 4.7925 1.6203 -0.7745 2.4086 -5.9299 -4.3330 -3.7399 -14.1470 -1.3335 -4.2021 6.0279 -0.0431 -2.3052 4.1465 -0.0000 -0.0000 0.0000 -82.5197 34.4103 42.3919 110.3968 -58.3681 -77.5674 -0.0000 0.0000 -9.6632 25.7774 -10.6603 -5.1050 -7.1250 0.0000 -0.0000 -0.9087 18.1738 0.5800 -0.0000 -0.0000 0.0000 83.2465 -3.6799 46.9087 -92.0731 59.9838 -61.7953 0.0000 -0.0000 -2.4713 -22.0011 -0.5686 0.2297 7.1250 -0.0000 -0.0000 3.6200 -30.5820 1.2770
0.00 0.00 0.00 -178.4150 0.7538 -160.0000 0.0000 0.0000 0.0000 -10.7664 -13.2546 -73.5167 8.6357 16.5675 54.8214 -0.2029 -14.2307 -7.4032 0.3605 -3.8571 -10.6750 0.0000 0.0000 0.0000 23.8650 -5.4517 10.2090 -0.7704 -5.6047 15.6415 -0.7923 1.3733 -16.4088 -3.0429 10.7642 -31.4886 4.2351 3.3966 13.2812 1.5317 5.4591 1.0952 -1.7571 2.6754 -6.0366 -4.7172 -4.2216 -14.2053 -0.4247 -4.8276 6.2558 0.2441 -2.5605 4.2655 -0.0000 0.0000 0.0000 -78.8146 42.9976 42.8252 119.9348 -56.3273 -85.6046 -0.0000 0.0000 -10.9435 25.4998 -11.6250 -5.4900 -7.1250 0.0000 -0.0000 -1.1610 17.1414 0.7674 -0.0000 0.0000 0.0000 83.5579 -4.6529 48.6741 -111.7388 58.1368 -78.7085 0.0000 -0.0000 -2.2452 -22.4029 1.4467 -0.5963 7.1250 -0.0000 -0.0000 3.2365 -28.4095 1.3088
0.00 0.00 0.00 -177.9540 1.1325 -158.7430 0.0000 0.0000 0.0000 -10.6401 -13.1730 -73.2690 9.5530 17.1507 57.9837 -0.1731 -14.8065 -8.3188 0.0979 -2.0173 -5.5536 0.0000 0.0000 0.0000 23.1602 -4.9357 15.1031 -0.2791 -3.3981 9.3892 0.0083 -3.5458 2.0684 -4.4069 12.6830 -38.1931 3.8339 3.8502 11.8749 0.8889 5.8223 0.3594 -2.1843 2.8126 -5.9811 -4.8900 -4.4692 -14.8175 0.6050 -5.1557 6.9589 0.5410 -2.6552 4.6199 0.0000 -0.0000 0.0000 -78.1191 48.0789 41.7952 121.5603 -55.8796 -86.9539 -0.0000 0.0000 -10.9836 24.8629 -11.9248 -5.4694 -7.1250 0.0000 -0.0000 -1.6226 16.8805 1.0820 0.0000 -0.0000 0.0000 83.5490 -5.6532 50.2342 -121.0339 56.0281 -86.5177 0.0000 -0.0000 -0.1539 -23.3523 2.2771 -0.9828 7.1250 -0.0000 -0.0000 2.4880 -27.4972 1.0592
